<svg xmlns="http://www.w3.org/2000/svg" viewBox="0 0 1122 1402" width="1122" height="1402">
<path d="M 767.0,971.0 757.0,976.0 755.0,986.0 759.0,992.0 771.0,998.0 773.0,1004.0 769.0,1007.0 765.0,1007.0 762.0,1005.0 761.0,1001.0 753.0,1001.0 754.0,1008.0 760.0,1013.0 772.0,1014.0 779.0,1010.0 781.0,1006.0 781.0,997.0 777.0,992.0 764.0,985.0 764.0,981.0 770.0,978.0 775.0,984.0 781.0,984.0 782.0,979.0 777.0,973.0 Z M 727.0,969.0 724.0,986.0 723.0,1010.0 746.0,1012.0 747.0,1005.0 732.0,1003.0 733.0,994.0 745.0,994.0 745.0,988.0 735.0,987.0 733.0,985.0 733.0,980.0 735.0,977.0 748.0,978.0 749.0,971.0 Z M 373.0,970.0 366.0,969.0 351.0,971.0 354.0,1012.0 362.0,1011.0 362.0,997.0 373.0,996.0 379.0,990.0 380.0,980.0 377.0,973.0 Z M 359.0,978.0 368.0,977.0 371.0,980.0 371.0,987.0 367.0,990.0 361.0,990.0 Z M 690.0,967.0 688.0,975.0 687.0,1008.0 707.0,1009.0 714.0,1004.0 716.0,999.0 716.0,975.0 713.0,971.0 706.0,968.0 Z M 698.0,975.0 704.0,975.0 709.0,980.0 708.0,997.0 704.0,1002.0 695.0,1001.0 696.0,980.0 Z M 661.0,966.0 647.0,1006.0 655.0,1007.0 659.0,999.0 668.0,999.0 671.0,1002.0 672.0,1008.0 680.0,1008.0 671.0,967.0 Z M 665.0,977.0 669.0,991.0 667.0,993.0 660.0,991.0 Z M 405.0,966.0 399.0,966.0 391.0,969.0 386.0,977.0 387.0,1000.0 392.0,1007.0 402.0,1010.0 412.0,1007.0 417.0,1000.0 416.0,975.0 410.0,968.0 Z M 399.0,974.0 404.0,974.0 408.0,978.0 409.0,997.0 404.0,1002.0 398.0,1001.0 395.0,996.0 394.0,981.0 395.0,977.0 Z M 615.0,965.0 614.0,1006.0 636.0,1005.0 640.0,1002.0 643.0,996.0 644.0,980.0 642.0,971.0 633.0,965.0 Z M 624.0,972.0 630.0,972.0 635.0,976.0 635.0,994.0 630.0,999.0 622.0,998.0 Z M 433.0,965.0 426.0,969.0 424.0,973.0 424.0,981.0 431.0,988.0 441.0,991.0 444.0,994.0 444.0,997.0 437.0,1001.0 432.0,997.0 432.0,995.0 424.0,996.0 424.0,1000.0 431.0,1007.0 445.0,1007.0 452.0,1000.0 452.0,991.0 447.0,985.0 434.0,980.0 432.0,975.0 435.0,972.0 440.0,972.0 443.0,976.0 450.0,976.0 451.0,973.0 449.0,969.0 443.0,965.0 Z M 597.0,964.0 596.0,1005.0 604.0,1005.0 605.0,964.0 Z M 567.0,964.0 566.0,1005.0 589.0,1005.0 589.0,998.0 575.0,997.0 575.0,964.0 Z M 549.0,964.0 548.0,1004.0 556.0,1005.0 557.0,964.0 Z M 495.0,964.0 495.0,1005.0 503.0,1005.0 503.0,964.0 Z M 467.0,964.0 459.0,971.0 459.0,980.0 463.0,985.0 475.0,989.0 479.0,993.0 479.0,996.0 476.0,999.0 470.0,999.0 466.0,994.0 460.0,994.0 459.0,1000.0 466.0,1006.0 479.0,1006.0 485.0,1002.0 487.0,998.0 487.0,990.0 481.0,983.0 471.0,980.0 467.0,974.0 473.0,970.0 478.0,975.0 485.0,975.0 485.0,969.0 478.0,964.0 Z M 512.0,964.0 512.0,1005.0 532.0,1005.0 537.0,1003.0 541.0,997.0 541.0,990.0 536.0,984.0 540.0,978.0 540.0,971.0 538.0,967.0 533.0,964.0 526.0,963.0 Z M 520.0,989.0 522.0,987.0 529.0,987.0 532.0,990.0 532.0,996.0 529.0,998.0 522.0,998.0 Z M 520.0,972.0 522.0,970.0 528.0,970.0 532.0,976.0 529.0,980.0 522.0,981.0 520.0,979.0 Z M 809.0,920.0 805.0,960.0 828.0,962.0 828.0,955.0 814.0,953.0 814.0,945.0 827.0,944.0 828.0,938.0 817.0,937.0 816.0,929.0 818.0,927.0 831.0,928.0 831.0,921.0 Z M 773.0,917.0 769.0,957.0 790.0,958.0 794.0,956.0 798.0,950.0 800.0,937.0 799.0,925.0 795.0,920.0 790.0,918.0 Z M 782.0,924.0 788.0,925.0 792.0,930.0 791.0,945.0 787.0,951.0 778.0,950.0 779.0,932.0 Z M 323.0,916.0 315.0,917.0 319.0,958.0 326.0,957.0 Z M 724.0,913.0 721.0,954.0 729.0,953.0 729.0,941.0 731.0,939.0 736.0,942.0 740.0,955.0 749.0,956.0 743.0,940.0 747.0,937.0 750.0,930.0 748.0,918.0 740.0,914.0 Z M 732.0,921.0 738.0,921.0 742.0,925.0 742.0,929.0 739.0,933.0 730.0,932.0 730.0,923.0 Z M 371.0,912.0 361.0,913.0 356.0,937.0 354.0,939.0 345.0,916.0 343.0,914.0 333.0,915.0 336.0,956.0 343.0,956.0 343.0,931.0 352.0,954.0 358.0,954.0 364.0,931.0 366.0,933.0 367.0,954.0 375.0,953.0 Z M 696.0,911.0 691.0,913.0 685.0,920.0 684.0,944.0 686.0,948.0 693.0,953.0 705.0,953.0 709.0,951.0 713.0,945.0 715.0,928.0 714.0,920.0 710.0,914.0 702.0,911.0 Z M 699.0,918.0 703.0,919.0 706.0,923.0 706.0,940.0 702.0,946.0 696.0,946.0 692.0,942.0 693.0,923.0 Z M 402.0,911.0 381.0,912.0 384.0,953.0 392.0,952.0 392.0,939.0 404.0,937.0 410.0,931.0 410.0,918.0 Z M 392.0,918.0 398.0,918.0 402.0,922.0 402.0,928.0 399.0,931.0 391.0,930.0 390.0,920.0 Z M 650.0,910.0 648.0,950.0 670.0,950.0 675.0,945.0 677.0,940.0 677.0,918.0 670.0,911.0 Z M 659.0,917.0 664.0,917.0 669.0,921.0 669.0,939.0 665.0,944.0 658.0,944.0 656.0,942.0 657.0,919.0 Z M 621.0,909.0 609.0,949.0 617.0,949.0 620.0,942.0 631.0,942.0 633.0,950.0 642.0,950.0 632.0,909.0 Z M 626.0,919.0 630.0,932.0 629.0,935.0 622.0,934.0 Z M 417.0,910.0 419.0,945.0 426.0,951.0 439.0,951.0 443.0,949.0 448.0,940.0 447.0,909.0 438.0,910.0 439.0,940.0 435.0,944.0 430.0,944.0 426.0,939.0 425.0,910.0 Z M 455.0,908.0 456.0,949.0 480.0,949.0 479.0,942.0 465.0,941.0 464.0,908.0 Z M 575.0,907.0 574.0,948.0 582.0,948.0 583.0,926.0 596.0,949.0 603.0,949.0 604.0,908.0 596.0,908.0 595.0,931.0 583.0,907.0 Z M 528.0,907.0 520.0,908.0 521.0,949.0 529.0,948.0 Z M 493.0,907.0 487.0,911.0 485.0,915.0 485.0,922.0 488.0,927.0 501.0,932.0 505.0,938.0 502.0,942.0 496.0,942.0 492.0,937.0 486.0,937.0 485.0,941.0 486.0,944.0 493.0,949.0 504.0,949.0 511.0,945.0 513.0,941.0 513.0,933.0 507.0,926.0 496.0,922.0 494.0,920.0 494.0,916.0 496.0,914.0 501.0,914.0 504.0,918.0 511.0,918.0 512.0,914.0 507.0,908.0 Z M 549.0,906.0 543.0,908.0 537.0,916.0 536.0,935.0 537.0,940.0 542.0,947.0 547.0,949.0 556.0,949.0 561.0,947.0 566.0,940.0 567.0,919.0 562.0,909.0 555.0,906.0 Z M 549.0,914.0 555.0,914.0 559.0,921.0 558.0,938.0 554.0,942.0 549.0,942.0 545.0,938.0 545.0,918.0 Z M 481.0,702.0 467.0,701.0 453.0,707.0 440.0,719.0 433.0,730.0 425.0,753.0 434.0,749.0 438.0,750.0 430.0,766.0 425.0,790.0 424.0,806.0 452.0,793.0 461.0,787.0 473.0,775.0 474.0,780.0 472.0,789.0 476.0,788.0 486.0,781.0 502.0,763.0 510.0,741.0 510.0,730.0 506.0,721.0 493.0,735.0 487.0,739.0 467.0,748.0 466.0,747.0 470.0,721.0 Z M 634.0,660.0 589.0,697.0 562.0,715.0 569.0,738.0 572.0,781.0 574.0,783.0 582.0,782.0 614.0,752.0 627.0,737.0 632.0,699.0 Z M 508.0,562.0 474.0,569.0 439.0,580.0 435.0,584.0 407.0,639.0 407.0,646.0 411.0,648.0 449.0,642.0 473.0,643.0 489.0,602.0 Z M 721.0,425.0 700.0,426.0 679.0,430.0 641.0,443.0 601.0,466.0 567.0,496.0 543.0,525.0 522.0,558.0 509.0,583.0 486.0,637.0 477.0,664.0 478.0,671.0 533.0,715.0 539.0,717.0 567.0,700.0 598.0,677.0 627.0,652.0 649.0,630.0 669.0,607.0 688.0,580.0 710.0,535.0 718.0,509.0 723.0,482.0 724.0,436.0 Z M 620.0,509.0 633.0,510.0 643.0,515.0 652.0,524.0 657.0,536.0 657.0,550.0 651.0,563.0 641.0,572.0 625.0,577.0 610.0,574.0 600.0,567.0 595.0,561.0 590.0,548.0 590.0,539.0 595.0,525.0 608.0,513.0 Z M 790.0,373.0 787.0,374.0 786.0,403.0 789.0,416.0 801.0,440.0 821.0,459.0 834.0,510.0 833.0,516.0 823.0,494.0 810.0,479.0 794.0,470.0 782.0,470.0 787.0,488.0 797.0,505.0 808.0,516.0 818.0,522.0 834.0,527.0 837.0,531.0 840.0,571.0 838.0,602.0 836.0,599.0 833.0,579.0 824.0,560.0 813.0,548.0 801.0,541.0 797.0,542.0 799.0,567.0 806.0,584.0 821.0,601.0 835.0,609.0 838.0,613.0 832.0,653.0 822.0,685.0 822.0,656.0 818.0,640.0 807.0,622.0 796.0,613.0 792.0,631.0 793.0,651.0 800.0,671.0 819.0,693.0 814.0,709.0 797.0,743.0 787.0,758.0 786.0,756.0 793.0,735.0 794.0,712.0 792.0,702.0 786.0,688.0 779.0,679.0 776.0,680.0 768.0,703.0 767.0,725.0 772.0,744.0 782.0,761.0 782.0,767.0 756.0,800.0 739.0,816.0 738.0,815.0 750.0,794.0 755.0,768.0 750.0,744.0 745.0,736.0 732.0,757.0 727.0,773.0 727.0,798.0 733.0,816.0 733.0,821.0 717.0,836.0 691.0,852.0 689.0,856.0 692.0,860.0 695.0,860.0 711.0,850.0 739.0,828.0 759.0,833.0 775.0,833.0 784.0,831.0 805.0,821.0 823.0,804.0 821.0,801.0 810.0,798.0 789.0,798.0 776.0,802.0 749.0,820.0 747.0,819.0 767.0,798.0 790.0,768.0 809.0,768.0 825.0,764.0 841.0,754.0 852.0,742.0 861.0,727.0 862.0,720.0 842.0,722.0 824.0,730.0 806.0,747.0 797.0,759.0 796.0,758.0 814.0,725.0 825.0,698.0 830.0,694.0 847.0,690.0 861.0,681.0 875.0,664.0 884.0,639.0 884.0,632.0 880.0,632.0 859.0,642.0 847.0,654.0 836.0,674.0 833.0,683.0 830.0,683.0 838.0,656.0 844.0,622.0 844.0,613.0 849.0,608.0 863.0,600.0 876.0,585.0 881.0,575.0 885.0,559.0 885.0,537.0 881.0,537.0 872.0,543.0 857.0,561.0 851.0,576.0 846.0,600.0 846.0,568.0 843.0,527.0 859.0,510.0 867.0,495.0 871.0,478.0 869.0,455.0 864.0,442.0 855.0,451.0 848.0,462.0 842.0,481.0 841.0,514.0 834.0,483.0 825.0,455.0 827.0,447.0 827.0,425.0 824.0,413.0 819.0,402.0 809.0,388.0 Z M 327.0,373.0 312.0,384.0 305.0,392.0 293.0,413.0 289.0,433.0 292.0,456.0 286.0,472.0 276.0,514.0 275.0,482.0 271.0,467.0 263.0,452.0 253.0,442.0 248.0,455.0 247.0,483.0 250.0,495.0 258.0,510.0 274.0,526.0 271.0,564.0 271.0,599.0 269.0,597.0 266.0,576.0 258.0,558.0 244.0,542.0 234.0,536.0 232.0,538.0 233.0,563.0 242.0,587.0 256.0,602.0 268.0,608.0 273.0,614.0 277.0,648.0 286.0,684.0 284.0,684.0 273.0,659.0 260.0,644.0 250.0,637.0 237.0,632.0 233.0,632.0 233.0,639.0 238.0,656.0 247.0,672.0 262.0,686.0 290.0,697.0 299.0,722.0 317.0,760.0 316.0,761.0 301.0,741.0 284.0,727.0 267.0,721.0 253.0,720.0 253.0,726.0 262.0,743.0 275.0,757.0 291.0,766.0 302.0,769.0 321.0,770.0 357.0,819.0 356.0,820.0 343.0,810.0 330.0,803.0 309.0,798.0 287.0,801.0 286.0,804.0 291.0,811.0 304.0,823.0 323.0,833.0 332.0,835.0 349.0,835.0 364.0,830.0 369.0,831.0 393.0,851.0 404.0,858.0 411.0,860.0 413.0,859.0 413.0,854.0 410.0,851.0 394.0,842.0 373.0,824.0 380.0,801.0 381.0,783.0 375.0,760.0 367.0,745.0 363.0,743.0 354.0,767.0 355.0,791.0 365.0,813.0 364.0,815.0 348.0,797.0 329.0,767.0 330.0,763.0 343.0,744.0 348.0,727.0 348.0,705.0 341.0,682.0 339.0,681.0 329.0,693.0 321.0,716.0 321.0,736.0 326.0,755.0 325.0,760.0 310.0,731.0 297.0,697.0 298.0,693.0 312.0,679.0 323.0,657.0 325.0,648.0 325.0,627.0 321.0,613.0 307.0,626.0 297.0,645.0 294.0,663.0 296.0,682.0 295.0,687.0 288.0,668.0 282.0,639.0 279.0,613.0 282.0,609.0 299.0,599.0 313.0,581.0 320.0,559.0 320.0,541.0 312.0,543.0 303.0,549.0 291.0,563.0 284.0,579.0 279.0,603.0 277.0,576.0 280.0,532.0 282.0,528.0 303.0,520.0 316.0,510.0 325.0,498.0 331.0,486.0 335.0,469.0 328.0,469.0 321.0,471.0 307.0,479.0 294.0,494.0 285.0,516.0 282.0,516.0 288.0,486.0 296.0,459.0 316.0,440.0 322.0,431.0 329.0,414.0 332.0,389.0 330.0,373.0 Z M 559.0,174.0 530.0,191.0 486.0,213.0 399.0,249.0 316.0,276.0 214.0,304.0 190.0,309.0 185.0,313.0 161.0,540.0 161.0,646.0 166.0,690.0 179.0,754.0 198.0,813.0 227.0,877.0 194.0,891.0 194.0,900.0 198.0,912.0 197.0,919.0 120.0,934.0 116.0,936.0 116.0,939.0 163.0,993.0 133.0,1062.0 134.0,1066.0 140.0,1066.0 187.0,1054.0 210.0,1050.0 290.0,1071.0 293.0,1068.0 291.0,1054.0 292.0,1043.0 340.0,1040.0 383.0,1079.0 450.0,1128.0 514.0,1166.0 542.0,1180.0 561.0,1187.0 619.0,1158.0 686.0,1116.0 735.0,1079.0 778.0,1040.0 827.0,1043.0 827.0,1070.0 833.0,1070.0 865.0,1062.0 907.0,1049.0 935.0,1053.0 984.0,1065.0 986.0,1061.0 956.0,991.0 1002.0,938.0 1003.0,934.0 1000.0,932.0 921.0,918.0 919.0,915.0 925.0,892.0 921.0,889.0 889.0,877.0 911.0,831.0 932.0,772.0 946.0,716.0 955.0,651.0 957.0,616.0 955.0,539.0 940.0,404.0 932.0,313.0 926.0,309.0 875.0,297.0 797.0,275.0 702.0,243.0 632.0,213.0 Z M 370.0,1040.0 371.0,1038.0 393.0,1037.0 432.0,1069.0 468.0,1094.0 516.0,1123.0 560.0,1144.0 595.0,1127.0 638.0,1102.0 675.0,1077.0 725.0,1037.0 748.0,1039.0 718.0,1066.0 674.0,1099.0 610.0,1139.0 561.0,1164.0 555.0,1163.0 528.0,1150.0 466.0,1114.0 410.0,1074.0 Z M 406.0,1037.0 439.0,1034.0 541.0,1032.0 672.0,1034.0 712.0,1037.0 680.0,1063.0 635.0,1094.0 598.0,1116.0 561.0,1135.0 558.0,1135.0 524.0,1118.0 488.0,1097.0 435.0,1061.0 Z M 200.0,929.0 203.0,934.0 224.0,1035.0 222.0,1037.0 151.0,1051.0 150.0,1050.0 175.0,994.0 175.0,990.0 135.0,943.0 138.0,941.0 Z M 917.0,928.0 974.0,938.0 983.0,941.0 983.0,943.0 943.0,989.0 968.0,1047.0 967.0,1050.0 936.0,1042.0 897.0,1036.0 894.0,1034.0 915.0,931.0 Z M 209.0,910.0 211.0,908.0 343.0,896.0 507.0,889.0 591.0,889.0 688.0,892.0 792.0,898.0 909.0,909.0 882.0,1037.0 747.0,1027.0 619.0,1022.0 491.0,1022.0 430.0,1024.0 321.0,1030.0 236.0,1037.0 232.0,1026.0 Z M 230.0,352.0 232.0,350.0 328.0,325.0 402.0,301.0 482.0,269.0 559.0,231.0 628.0,265.0 704.0,296.0 814.0,332.0 885.0,350.0 887.0,352.0 908.0,562.0 908.0,633.0 906.0,657.0 896.0,720.0 879.0,781.0 856.0,837.0 829.0,887.0 826.0,890.0 648.0,880.0 491.0,879.0 402.0,882.0 290.0,890.0 281.0,877.0 260.0,837.0 241.0,791.0 223.0,732.0 212.0,672.0 208.0,629.0 209.0,544.0 Z M 205.0,330.0 209.0,327.0 248.0,318.0 326.0,296.0 416.0,266.0 486.0,237.0 533.0,214.0 559.0,199.0 634.0,238.0 710.0,269.0 804.0,300.0 910.0,328.0 912.0,330.0 919.0,413.0 933.0,533.0 935.0,563.0 935.0,629.0 933.0,656.0 926.0,706.0 911.0,768.0 886.0,835.0 858.0,890.0 855.0,893.0 837.0,891.0 867.0,833.0 894.0,761.0 908.0,701.0 916.0,635.0 917.0,584.0 914.0,532.0 900.0,412.0 895.0,350.0 893.0,344.0 806.0,321.0 706.0,288.0 628.0,256.0 560.0,222.0 495.0,254.0 405.0,291.0 316.0,320.0 224.0,344.0 222.0,346.0 219.0,388.0 202.0,533.0 200.0,564.0 201.0,643.0 209.0,705.0 225.0,770.0 249.0,833.0 279.0,889.0 275.0,892.0 261.0,893.0 248.0,872.0 234.0,844.0 208.0,777.0 191.0,709.0 183.0,651.0 181.0,620.0 181.0,566.0 183.0,533.0 Z" fill="#00552b" fill-rule="evenodd"/>
</svg>